<svg fill="none" xmlns="http://www.w3.org/2000/svg" viewBox="0 0 127 32">
  <g clip-path="url(#a)">
    <path d="m28.85 8.41-5.26-5.26a10.73 10.73 0 0 0-15.19 0L3.15 8.41a10.72 10.72 0 0 0 0 15.18l5.25 5.26a10.73 10.73 0 0 0 15 .15l5.38-5.38a10.72 10.72 0 0 0 0-15.18l.07-.03Z" fill="#fff"/>
    <mask id="b" style="mask-type:alpha" maskUnits="userSpaceOnUse" x="0" y="-1" width="32" height="33">
      <path d="m28.85 8.41-5.26-5.26a10.73 10.73 0 0 0-15.19 0L3.15 8.41a10.72 10.72 0 0 0 0 15.18l5.25 5.26a10.73 10.73 0 0 0 15 .15l5.38-5.38a10.72 10.72 0 0 0 0-15.18l.07-.03Z" fill="#7EB2FF"/>
    </mask>
    <g mask="url(#b)">
      <g opacity=".75" filter="url(#c)">
        <rect width="23.514" height="23.514" rx="8" transform="scale(1 -1) rotate(-45 -37.055 -8.279)" fill="url(#d)"/>
        <rect width="23.514" height="23.514" rx="8" transform="scale(1 -1) rotate(-45 -37.055 -8.279)" fill="url(#e)" fill-opacity=".2" style="mix-blend-mode:soft-light"/>
      </g>
      <g opacity=".75" filter="url(#f)">
        <rect width="18.444" height="18.444" rx="5" transform="scale(1 -1) rotate(-45 -15.278 -24.715)" fill="url(#g)"/>
        <rect width="18.444" height="18.444" rx="5" transform="scale(1 -1) rotate(-45 -15.278 -24.715)" fill="url(#h)" fill-opacity=".2" style="mix-blend-mode:soft-light"/>
      </g>
      <rect opacity=".55" width="30.286" height="30.286" rx="11" transform="scale(1 -1) rotate(-45 -28.727 12.73)" fill="url(#i)"/>
      <g filter="url(#j)">
        <rect width="22.747" height="22.747" rx="9" transform="scale(-1 1) rotate(45 -28.65 -17.952)" fill="url(#k)"/>
      </g>
      <g style="mix-blend-mode:multiply">
        <rect width="1.872" height="1.872" rx=".936" transform="scale(-1 1) rotate(45 -11.813 -18.166)" fill="url(#l)" style="mix-blend-mode:multiply"/>
        <rect width="11.819" height="11.819" rx="4" transform="scale(-1 1) rotate(45 -21.809 -14.026)" fill="url(#m)" style="mix-blend-mode:multiply"/>
        <rect width="10.187" height="10.187" rx="3" transform="scale(-1 1) rotate(45 -17.81 -15.683)" fill="url(#n)" style="mix-blend-mode:multiply"/>
        <rect width="7.056" height="7.056" rx="2" transform="scale(-1 1) rotate(45 -14.502 -17.053)" fill="url(#o)" style="mix-blend-mode:multiply"/>
      </g>
      <g style="mix-blend-mode:multiply">
        <rect width="1.872" height="1.872" rx=".936" transform="scale(-1 1) rotate(45 -11.813 -18.166)" fill="url(#p)" style="mix-blend-mode:multiply"/>
        <rect width="11.819" height="11.819" rx="4" transform="scale(-1 1) rotate(45 -21.809 -14.026)" fill="url(#q)" style="mix-blend-mode:multiply"/>
        <rect width="10.187" height="10.187" rx="3" transform="scale(-1 1) rotate(45 -17.81 -15.683)" fill="url(#r)" style="mix-blend-mode:multiply"/>
        <rect width="7.056" height="7.056" rx="2" transform="scale(-1 1) rotate(45 -14.502 -17.053)" fill="url(#s)" style="mix-blend-mode:multiply"/>
      </g>
      <path d="M27.805 12.196a.494.494 0 1 0 0-.988.494.494 0 0 0 0 .988ZM23.134 7.007a.25.25 0 1 0 0-.502.25.25 0 0 0 0 .502ZM18.456 28.912a.456.456 0 1 0 0-.912.456.456 0 0 0 0 .912ZM5.296 18.593a.296.296 0 1 0 0-.593.296.296 0 0 0 0 .593ZM8.463 4.66a.144.144 0 1 0 0-.29.144.144 0 0 0 0 .29ZM25.428 2.289a.144.144 0 1 0 0-.289.144.144 0 0 0 0 .289ZM4.056 4.203a.296.296 0 1 0 0-.592.296.296 0 0 0 0 .592Z" fill="#849AF4"/>
    </g>
    <path d="M107.409 23.86a1.17 1.17 0 0 1-1.17-1.17V8.12a1.184 1.184 0 0 1 .699-1.188 1.177 1.177 0 0 1 1.595.704c.052.156.071.32.056.484v14.57a1.177 1.177 0 0 1-1.18 1.17ZM67.11 20.5a1.12 1.12 0 0 0-1.56.16c-1.06 1.31-3.67 1-4.36.72A2.38 2.38 0 0 1 59.71 19v-8h5.21a1.18 1.18 0 1 0 0-2.36h-5.21v-6a1.109 1.109 0 0 0-2.158-.456 1.11 1.11 0 0 0-.052.456V19a4.57 4.57 0 0 0 2.85 4.47 7.11 7.11 0 0 0 2.48.42 5.6 5.6 0 0 0 4.44-1.79 1.1 1.1 0 0 0-.16-1.6ZM49 23.93a8.325 8.325 0 0 1-1.1-.07c-3.85-.49-6.15-2.26-6.15-4.74a1.18 1.18 0 0 1 2.35 0c0 1.14 1.61 2.09 4.09 2.4 2.48.31 4.27-.92 4.52-1.9a1.897 1.897 0 0 0-.16-1.5 2.189 2.189 0 0 0-1.5-.89c-5-.89-8.36-1.71-8.84-4.89a3.93 3.93 0 0 1 .94-3.2 6.7 6.7 0 0 1 5.17-2c4 0 6.65 1.8 6.65 4.6a1.18 1.18 0 1 1-2.36 0c0-1.66-2.31-2.25-4.29-2.25A4.53 4.53 0 0 0 45 10.67a1.6 1.6 0 0 0-.4 1.32c.18 1.18 1.26 1.91 6.94 2.92a4.449 4.449 0 0 1 3 2 4.181 4.181 0 0 1 .46 3.31c-.51 1.94-2.83 3.71-6 3.71ZM76.16 23.93a8.4 8.4 0 1 1 8.35-9.45 1.53 1.53 0 0 1-.42 1.2 1.39 1.39 0 0 1-1.09.52H70.13A6.14 6.14 0 0 0 81.24 19a1.18 1.18 0 0 1 2 1.19 8.38 8.38 0 0 1-7.08 3.74Zm-5.83-10.09H82a6.08 6.08 0 0 0-11.65 0h-.02ZM95.11 7.14a8.35 8.35 0 0 0-6 2.57V8.29a1.18 1.18 0 1 0-2.36 0v20.18a1.18 1.18 0 1 0 2.36 0v-7.11a8.39 8.39 0 1 0 6-14.22Zm0 14.43a6 6 0 1 1 0-12 6 6 0 0 1 0 12ZM124.21 23.8a4.92 4.92 0 0 1-3.37-1.51c-.81-.75-5.91-5.92-6.13-6.14a1.194 1.194 0 0 1-.34-.84 1.152 1.152 0 0 1 .36-.83l7-6.88a1.191 1.191 0 0 1 .853-.395 1.175 1.175 0 0 1 .87.353 1.185 1.185 0 0 1 .337.877 1.192 1.192 0 0 1-.41.845l-6.2 6.06c1.52 1.53 4.64 4.68 5.23 5.23a2.75 2.75 0 0 0 1.81.88h.87a1.183 1.183 0 0 1 1.18 1.18 1.18 1.18 0 0 1-1.18 1.18h-.79l-.09-.01ZM112.82 23.86a1.183 1.183 0 0 1-1.18-1.18v-20a1.185 1.185 0 0 1 .303-.903 1.174 1.174 0 0 1 1.348-.285 1.188 1.188 0 0 1 .643.704c.052.156.071.32.056.484v20a1.18 1.18 0 0 1-.339.834 1.18 1.18 0 0 1-.831.346Z" fill="#fff"/>
    <path fill-rule="evenodd" clip-rule="evenodd" d="M107.44 4.56a1.514 1.514 0 0 0 1.395-.932 1.515 1.515 0 0 0-.328-1.646 1.509 1.509 0 0 0-2.577 1.068 1.495 1.495 0 0 0 .93 1.398c.184.075.381.113.58.112Z" fill="#fff"/>
  </g>
  <defs>
    <linearGradient id="d" x1="29.299" y1="-8.833" x2="2.985" y2="26.253" gradientUnits="userSpaceOnUse">
      <stop stop-color="#FF6187"/>
      <stop offset="1" stop-color="#FFF2F0"/>
    </linearGradient>
    <linearGradient id="e" x1="11.757" y1="0" x2="11.757" y2="23.514" gradientUnits="userSpaceOnUse">
      <stop offset=".328" stop-color="#fff"/>
      <stop offset="1" stop-opacity=".1"/>
    </linearGradient>
    <linearGradient id="g" x1="22.983" y1="-6.929" x2="2.342" y2="20.593" gradientUnits="userSpaceOnUse">
      <stop stop-color="#FF6187"/>
      <stop offset="1" stop-color="#FFF2F0"/>
    </linearGradient>
    <linearGradient id="h" x1="9.222" y1="0" x2="9.222" y2="18.444" gradientUnits="userSpaceOnUse">
      <stop offset=".328" stop-color="#fff"/>
      <stop offset="1" stop-opacity=".1"/>
    </linearGradient>
    <linearGradient id="i" x1="22.492" y1=".668" x2="13.807" y2="22.269" gradientUnits="userSpaceOnUse">
      <stop stop-color="#0F2FFF"/>
      <stop offset="1" stop-color="#fff"/>
    </linearGradient>
    <linearGradient id="k" x1="29.102" y1="7.429" x2=".898" y2="16.831" gradientUnits="userSpaceOnUse">
      <stop stop-color="#FF6187"/>
      <stop offset="1" stop-color="#849AF4"/>
    </linearGradient>
    <linearGradient id="l" x1=".537" y1="-2.686" x2="1.074" y2="3.223" gradientUnits="userSpaceOnUse">
      <stop stop-color="#CAE2FF"/>
      <stop offset="1" stop-color="#6C7BDF"/>
    </linearGradient>
    <linearGradient id="m" x1="5.909" y1="0" x2="5.909" y2="11.819" gradientUnits="userSpaceOnUse">
      <stop stop-color="#CAE2FF"/>
      <stop offset="1" stop-color="#5B96EF"/>
    </linearGradient>
    <linearGradient id="n" x1="9.055" y1="5.087" x2="-2.966" y2="9.33" gradientUnits="userSpaceOnUse">
      <stop stop-color="#E1E5FF"/>
      <stop offset="1" stop-color="#9EABFF"/>
    </linearGradient>
    <linearGradient id="o" x1="3.528" y1="0" x2="3.528" y2="7.056" gradientUnits="userSpaceOnUse">
      <stop stop-color="#CAE2FF"/>
      <stop offset="1" stop-color="#9BA8FF"/>
    </linearGradient>
    <linearGradient id="p" x1=".537" y1="-2.686" x2="1.074" y2="3.223" gradientUnits="userSpaceOnUse">
      <stop stop-color="#CAE2FF"/>
      <stop offset="1" stop-color="#6C7BDF"/>
    </linearGradient>
    <linearGradient id="q" x1="7.419" y1="-.791" x2="2.823" y2="18.654" gradientUnits="userSpaceOnUse">
      <stop stop-color="#fff"/>
      <stop offset="1" stop-color="#5B96EF"/>
    </linearGradient>
    <linearGradient id="r" x1="6.934" y1="-.57" x2="3.752" y2="11.805" gradientUnits="userSpaceOnUse">
      <stop stop-color="#E1E5FF"/>
      <stop offset="1" stop-color="#9EABFF"/>
    </linearGradient>
    <linearGradient id="s" x1="3.568" y1="2.429" x2="-.321" y2="9.146" gradientUnits="userSpaceOnUse">
      <stop stop-color="#CAE2FF"/>
      <stop offset="1" stop-color="#9BA8FF"/>
    </linearGradient>
    <filter id="c" x="-7.07" y="9.929" width="37.396" height="37.396" filterUnits="userSpaceOnUse" color-interpolation-filters="sRGB">
      <feFlood flood-opacity="0" result="BackgroundImageFix"/>
      <feBlend in="SourceGraphic" in2="BackgroundImageFix" result="shape"/>
      <feColorMatrix in="SourceAlpha" values="0 0 0 0 0 0 0 0 0 0 0 0 0 0 0 0 0 0 127 0" result="hardAlpha"/>
      <feOffset dx="5.385" dy="5.385"/>
      <feGaussianBlur stdDeviation="2.692"/>
      <feComposite in2="hardAlpha" operator="arithmetic" k2="-1" k3="1"/>
      <feColorMatrix values="0 0 0 0 1 0 0 0 0 1 0 0 0 0 1 0 0 0 0.2 0"/>
      <feBlend in2="shape" result="effect1_innerShadow_1015_119"/>
      <feColorMatrix in="SourceAlpha" values="0 0 0 0 0 0 0 0 0 0 0 0 0 0 0 0 0 0 127 0" result="hardAlpha"/>
      <feOffset dx="-5.385" dy="-5.385"/>
      <feGaussianBlur stdDeviation="2.692"/>
      <feComposite in2="hardAlpha" operator="arithmetic" k2="-1" k3="1"/>
      <feColorMatrix values="0 0 0 0 0 0 0 0 0 0 0 0 0 0 0 0 0 0 0.05 0"/>
      <feBlend in2="effect1_innerShadow_1015_119" result="effect2_innerShadow_1015_119"/>
    </filter>
    <filter id="f" x="9.687" y="1.686" width="32.712" height="32.712" filterUnits="userSpaceOnUse" color-interpolation-filters="sRGB">
      <feFlood flood-opacity="0" result="BackgroundImageFix"/>
      <feBlend in="SourceGraphic" in2="BackgroundImageFix" result="shape"/>
      <feColorMatrix in="SourceAlpha" values="0 0 0 0 0 0 0 0 0 0 0 0 0 0 0 0 0 0 127 0" result="hardAlpha"/>
      <feOffset dx="5.385" dy="5.385"/>
      <feGaussianBlur stdDeviation="2.692"/>
      <feComposite in2="hardAlpha" operator="arithmetic" k2="-1" k3="1"/>
      <feColorMatrix values="0 0 0 0 1 0 0 0 0 1 0 0 0 0 1 0 0 0 0.2 0"/>
      <feBlend in2="shape" result="effect1_innerShadow_1015_119"/>
      <feColorMatrix in="SourceAlpha" values="0 0 0 0 0 0 0 0 0 0 0 0 0 0 0 0 0 0 127 0" result="hardAlpha"/>
      <feOffset dx="-5.385" dy="-5.385"/>
      <feGaussianBlur stdDeviation="2.692"/>
      <feComposite in2="hardAlpha" operator="arithmetic" k2="-1" k3="1"/>
      <feColorMatrix values="0 0 0 0 0 0 0 0 0 0 0 0 0 0 0 0 0 0 0.05 0"/>
      <feBlend in2="effect1_innerShadow_1015_119" result="effect2_innerShadow_1015_119"/>
    </filter>
    <filter id="j" x="3.344" y="13.343" width="35.483" height="35.483" filterUnits="userSpaceOnUse" color-interpolation-filters="sRGB">
      <feFlood flood-opacity="0" result="BackgroundImageFix"/>
      <feBlend in="SourceGraphic" in2="BackgroundImageFix" result="shape"/>
      <feColorMatrix in="SourceAlpha" values="0 0 0 0 0 0 0 0 0 0 0 0 0 0 0 0 0 0 127 0" result="hardAlpha"/>
      <feOffset dx="5.385" dy="5.385"/>
      <feGaussianBlur stdDeviation="2.692"/>
      <feComposite in2="hardAlpha" operator="arithmetic" k2="-1" k3="1"/>
      <feColorMatrix values="0 0 0 0 1 0 0 0 0 1 0 0 0 0 1 0 0 0 0.2 0"/>
      <feBlend in2="shape" result="effect1_innerShadow_1015_119"/>
      <feColorMatrix in="SourceAlpha" values="0 0 0 0 0 0 0 0 0 0 0 0 0 0 0 0 0 0 127 0" result="hardAlpha"/>
      <feOffset dx="-5.385" dy="-5.385"/>
      <feGaussianBlur stdDeviation="2.692"/>
      <feComposite in2="hardAlpha" operator="arithmetic" k2="-1" k3="1"/>
      <feColorMatrix values="0 0 0 0 0 0 0 0 0 0 0 0 0 0 0 0 0 0 0.05 0"/>
      <feBlend in2="effect1_innerShadow_1015_119" result="effect2_innerShadow_1015_119"/>
    </filter>
    <clipPath id="a">
      <path fill="#fff" d="M0 0h126.3v32H0z"/>
    </clipPath>
  </defs>
</svg>
